<svg width="158" height="27" viewBox="0 0 158 27" fill="none" xmlns="http://www.w3.org/2000/svg">
<path d="M18.0571 24.3721C15.611 25.2592 14.262 25.5427 12.7345 25.5427C9.33538 25.6168 6.04542 24.3408 3.58518 21.9942C1.3124 19.6983 0.0259868 16.6056 0 13.3751C0.0271021 10.1123 1.31123 6.98567 3.58518 4.6457C4.75674 3.47495 6.14835 2.54756 7.67986 1.91693C9.21138 1.28631 10.8525 0.964925 12.5088 0.971284C14.4182 1.00333 16.3029 1.40809 18.0571 2.16285V9.51169C17.4304 8.69044 16.6191 8.02824 15.689 7.57867C14.7588 7.1291 13.7359 6.90478 12.703 6.92384C11.1323 6.8699 9.60337 7.43548 8.44591 8.49859C7.78686 9.12355 7.26392 9.87784 6.90985 10.7142C6.55579 11.5506 6.37821 12.4511 6.38824 13.3593C6.38884 14.2166 6.55835 15.0653 6.8871 15.857C7.21585 16.6487 7.69738 17.3678 8.30419 17.9733C9.52168 19.0368 11.0865 19.6175 12.703 19.6058C13.7229 19.6099 14.7312 19.3895 15.6565 18.9605C16.5817 18.5314 17.4013 17.9041 18.0571 17.123V24.3721Z" fill="#231F20"/>
<path d="M56.8855 1.34912C58.6597 1.34912 60.9274 1.63258 62.6596 3.44879C63.979 4.9034 64.7008 6.80244 64.6805 8.7662C64.7108 9.67225 64.5601 10.5752 64.2375 11.4224C63.9148 12.2696 63.4266 13.044 62.8013 13.7004C61.8861 14.5378 60.7554 15.1031 59.5364 15.3329L66.9482 25.0176H59.3159L53.4263 15.9366V25.0176H47.3058V1.34912H56.8855ZM53.4421 11.9577H54.5916C55.5155 11.9577 56.8278 11.7057 57.5732 10.9971C58.0731 10.4569 58.3522 9.7489 58.3553 9.01291C58.3571 8.64363 58.2857 8.27766 58.1451 7.93617C58.0046 7.59468 57.7977 7.28447 57.5364 7.02347C56.9695 6.45656 55.9617 6.09962 54.5916 6.09962H53.4211L53.4421 11.9577Z" fill="#231F20"/>
<path d="M81.0473 6.03132C80.7091 5.35291 80.2378 4.74952 79.6615 4.2571C78.891 3.69466 77.9535 3.40806 77.0002 3.44348C74.6591 3.44348 73.0266 4.8975 73.0266 7.1179C73.0041 7.50626 73.0725 7.89452 73.2266 8.25176C73.3806 8.60899 73.6159 8.92533 73.9137 9.17557C74.6409 9.82322 75.4831 10.3289 76.3966 10.6663L78.6695 11.6584C80.0251 12.1638 81.2721 12.9227 82.3439 13.8946C82.9126 14.4502 83.3583 15.119 83.6521 15.8578C83.946 16.5965 84.0815 17.3887 84.0498 18.1831C84.0498 22.5505 80.8216 25.4585 76.5593 25.4585C75.6174 25.4985 74.677 25.3496 73.7935 25.0205C72.91 24.6915 72.1014 24.189 71.4151 23.5426C70.3018 22.3774 69.5395 20.9219 69.2157 19.3432L71.772 18.6346C71.9274 19.7611 72.4217 20.8138 73.1893 21.6529C73.6349 22.0962 74.1679 22.4419 74.7545 22.6678C75.341 22.8938 75.9682 22.995 76.596 22.9651C79.8243 22.9651 81.3518 20.6608 81.3518 18.2829C81.3723 17.7641 81.278 17.2471 81.0757 16.7689C80.8733 16.2907 80.5679 15.8631 80.1812 15.5166C79.3279 14.8242 78.3692 14.273 77.3414 13.8841L75.2155 12.8867C74.0581 12.4302 72.9915 11.7707 72.066 10.9393C71.5255 10.4547 71.0989 9.85654 70.8167 9.18772C70.5345 8.51891 70.4036 7.79596 70.4335 7.07066C70.4335 3.39624 73.2366 0.965871 77.0685 0.965871C78.4121 0.910691 79.7393 1.27783 80.8636 2.01571C81.8378 2.68709 82.6312 3.58864 83.1732 4.64029L81.0473 6.03132Z" fill="#231F20"/>
<path d="M86.9681 13.1966C86.9681 6.1365 92.464 0.955566 99.2775 0.955566C106.091 0.955566 111.587 6.1365 111.587 13.1966C111.587 16.4613 110.29 19.5922 107.981 21.9006C105.673 24.2091 102.542 25.5059 99.2775 25.5059C96.0128 25.5059 92.8819 24.2091 90.5735 21.9006C88.265 19.5922 86.9681 16.4613 86.9681 13.1966ZM89.661 13.1966C89.661 15.7471 90.6741 18.1931 92.4776 19.9965C94.281 21.7999 96.727 22.8131 99.2775 22.8131C101.828 22.8131 104.274 21.7999 106.077 19.9965C107.881 18.1931 108.894 15.7471 108.894 13.1966C108.894 10.6462 107.881 8.20019 106.077 6.39675C104.274 4.59331 101.828 3.58015 99.2775 3.58015C96.727 3.58015 94.281 4.59331 92.4776 6.39675C90.6741 8.20019 89.661 10.6462 89.661 13.1966Z" fill="#231F20"/>
<path d="M114.794 25.0123L118.731 0.0367442L127.812 20.0098L137.072 0L140.746 25.0123H138.053L135.822 8.5509L127.775 26.0044L119.828 8.5509L117.487 25.0123H114.794Z" fill="#231F20"/>
<path d="M158 3.83198H148.347V10.8554H157.711V13.3382H148.347V22.5295H158V25.0124H145.717V1.34912H158V3.83198Z" fill="#231F20"/>
<path d="M35.8726 1.34912H29.1694L20.0884 25.0124H26.5816L32.4712 8.69271L38.219 25.0124H44.7805L35.8726 1.34912Z" fill="#231F20"/>
</svg>
